<svg width="24" height="24" viewBox="0 0 24 24" fill="none" xmlns="http://www.w3.org/2000/svg">
<path fill-rule="evenodd" clip-rule="evenodd" d="M12 0.299988C5.4 0.299988 0 5.69999 0 12.3C0 17.625 3.45 22.125 8.175 23.7C8.775 23.775 9 23.475 9 23.1C9 22.8 9 22.05 9 21.075C5.625 21.825 4.95 19.5 4.95 19.5C4.425 18.15 3.6 17.775 3.6 17.775C2.475 17.025 3.675 17.025 3.675 17.025C4.875 17.1 5.55 18.225 5.55 18.225C6.6 20.025 8.325 19.5 9.075 19.2C9.15 18.45 9.525 17.925 9.825 17.625C7.125 17.325 4.35 16.275 4.35 11.7C4.35 10.425 4.8 9.29999 5.55 8.47499C5.4 8.17499 5.025 6.97499 5.7 5.32499C5.7 5.32499 6.675 5.02499 9 6.52499C9.975 6.22499 10.95 6.14999 12 6.14999C13.05 6.14999 14.025 6.29999 15 6.52499C17.325 4.94999 18.3 5.24999 18.3 5.24999C18.975 6.89999 18.525 8.09999 18.45 8.39999C19.2 9.22499 19.65 10.275 19.65 11.625C19.65 16.2 16.875 17.25 14.175 17.55C14.625 17.925 15 18.675 15 19.8C15 21.375 15 22.725 15 23.1C15 23.4 15.225 23.775 15.825 23.7C20.55 22.125 24 17.625 24 12.3C24 5.69999 18.6 0.299988 12 0.299988Z" fill="white"/>
</svg>
